# xmcd CD database file
#
# Track frame offsets:
#	150
#	9716
#	20811
#	31920
#	41507
#	52197
#	63627
#	73690
#	86893
#	96482
#	107150
#	120881
#
# Disc length: 1752 seconds
#
# Revision: 2
# Processed by: cddbd v1.5.2PL0 Copyright (c) Steve Scherf et al.
# Submitted via: CDex 1.51
#
DISCID=a906d60c
DTITLE=Pat Boone - The Best Of Pat Boone
DYEAR=2000
DGENRE=Oldies
TTITLE0=Love Letters In The Sand
TTITLE1=April Love
TTITLE2=Moody River
TTITLE3=Bernadine
TTITLE4=Johnny Will
TTITLE5=Speedy Gonzalez
TTITLE6=Dpn't Forbid Me
TTITLE7=Jambalaya
TTITLE8=Mr Blue
TTITLE9=Tutti Frutti
TTITLE10=Friendly Persuasion
TTITLE11=Ain't That A Shame
EXTD=YEAR: 2000
EXTT0=
EXTT1=
EXTT2=
EXTT3=
EXTT4=
EXTT5=
EXTT6=
EXTT7=
EXTT8=
EXTT9=
EXTT10=
EXTT11=
PLAYORDER=
